<?xml version="1.0" encoding="UTF-8" standalone="no"?>
<svg
   xmlns:dc="http://purl.org/dc/elements/1.1/"
   xmlns:cc="http://creativecommons.org/ns#"
   xmlns:rdf="http://www.w3.org/1999/02/22-rdf-syntax-ns#"
   xmlns:svg="http://www.w3.org/2000/svg"
   xmlns="http://www.w3.org/2000/svg"
   width="800"
   height="400"
   viewBox="0 30 400 200"
   version="1.1"
   id="svg51">
  <metadata
     id="metadata57">
    <rdf:RDF>
      <cc:Work
         rdf:about="">
        <dc:format>image/svg+xml</dc:format>
        <dc:type
           rdf:resource="http://purl.org/dc/dcmitype/StillImage" />
        <dc:title></dc:title>
      </cc:Work>
    </rdf:RDF>
  </metadata>
  <defs
     id="defs55" />
  <style
     id="style2">
        .balls { fill: #ff9900}
    </style>
  <g
     id="orangeballs"
     class="balls">
    <circle
       cx="30"
       cy="60"
       r="12"
       id="circle4" />
    <circle
       cx="80"
       cy="40"
       r="7"
       id="circle6" />
    <circle
       cx="125"
       cy="40"
       r="7"
       id="circle8" />
    <circle
       cx="170"
       cy="80"
       r="12"
       id="circle10" />
    <circle
       cx="170"
       cy="150"
       r="12"
       id="circle12" />
    <circle
       cx="100"
       cy="180"
       r="12"
       id="circle14" />
    <circle
       cx="50"
       cy="150"
       r="18"
       id="circle16" />
    <circle
       cx="100"
       cy="100"
       r="18"
       id="circle18" />
  </g>
  <g
     class="lines"
     stroke-width="2.2"
     stroke="#ff9900"
     id="g39">
    <line
       x1="100"
       y1="100"
       x2="30"
       y2="60"
       id="line21" />
    <line
       x1="100"
       y1="100"
       x2="80"
       y2="40"
       id="line23" />
    <line
       x1="100"
       y1="100"
       x2="125"
       y2="40"
       id="line25" />
    <line
       x1="125"
       y1="40"
       x2="170"
       y2="80"
       id="line27" />
    <line
       x1="100"
       y1="100"
       x2="50"
       y2="150"
       id="line29" />
    <line
       x1="100"
       y1="100"
       x2="170"
       y2="150"
       id="line31" />
    <line
       x1="100"
       y1="180"
       x2="170"
       y2="150"
       id="line33" />
    <line
       x1="170"
       y1="80"
       x2="170"
       y2="150"
       id="line35" />
    <line
       x1="100"
       y1="180"
       x2="50"
       y2="150"
       id="line37" />
  </g>
</svg>
